HIERARCHY
ROOT Hips
{
  OFFSET 0.0000 0.0000 0.0000
  CHANNELS 6 Xposition Yposition Zposition Zrotation Xrotation Yrotation
  JOINT Spine
  {
    OFFSET 0.0000 10.0000 0.0000
    CHANNELS 3 Zrotation Xrotation Yrotation
    JOINT Spine1
    {
      OFFSET 0.0000 10.0000 0.0000
      CHANNELS 3 Zrotation Xrotation Yrotation
      JOINT Spine2
      {
        OFFSET 0.0000 10.0000 0.0000
        CHANNELS 3 Zrotation Xrotation Yrotation
        JOINT Neck
        {
          OFFSET 0.0000 10.0000 0.0000
          CHANNELS 3 Zrotation Xrotation Yrotation
          JOINT Head
          {
            OFFSET 0.0000 10.0000 0.0000
            CHANNELS 3 Zrotation Xrotation Yrotation
            End Site
            {
              OFFSET 0.0000 10.0000 0.0000
            }
          }
        }
        JOINT LeftShoulder
        {
          OFFSET 5.0000 5.0000 0.0000
          CHANNELS 3 Zrotation Xrotation Yrotation
          JOINT LeftArm
          {
            OFFSET 10.0000 0.0000 0.0000
            CHANNELS 3 Zrotation Xrotation Yrotation
            JOINT LeftForeArm
            {
              OFFSET 20.0000 0.0000 0.0000
              CHANNELS 3 Zrotation Xrotation Yrotation
              JOINT LeftHand
              {
                OFFSET 20.0000 0.0000 0.0000
                CHANNELS 3 Zrotation Xrotation Yrotation
                End Site
                {
                  OFFSET 10.0000 0.0000 0.0000
                }
              }
            }
          }
        }
        JOINT RightShoulder
        {
          OFFSET -5.0000 5.0000 0.0000
          CHANNELS 3 Zrotation Xrotation Yrotation
          JOINT RightArm
          {
            OFFSET -10.0000 0.0000 0.0000
            CHANNELS 3 Zrotation Xrotation Yrotation
            JOINT RightForeArm
            {
              OFFSET -20.0000 0.0000 0.0000
              CHANNELS 3 Zrotation Xrotation Yrotation
              JOINT RightHand
              {
                OFFSET -20.0000 0.0000 0.0000
                CHANNELS 3 Zrotation Xrotation Yrotation
                End Site
                {
                  OFFSET -10.0000 0.0000 0.0000
                }
              }
            }
          }
        }
      }
    }
  }
  JOINT LeftUpLeg
  {
    OFFSET 10.0000 0.0000 0.0000
    CHANNELS 3 Zrotation Xrotation Yrotation
    JOINT LeftLeg
    {
      OFFSET 0.0000 -40.0000 0.0000
      CHANNELS 3 Zrotation Xrotation Yrotation
      JOINT LeftFoot
      {
        OFFSET 0.0000 -40.0000 0.0000
        CHANNELS 3 Zrotation Xrotation Yrotation
        JOINT LeftToeBase
        {
          OFFSET 0.0000 -5.0000 10.0000
          CHANNELS 3 Zrotation Xrotation Yrotation
          End Site
          {
            OFFSET 0.0000 0.0000 5.0000
          }
        }
      }
    }
  }
  JOINT RightUpLeg
  {
    OFFSET -10.0000 0.0000 0.0000
    CHANNELS 3 Zrotation Xrotation Yrotation
    JOINT RightLeg
    {
      OFFSET 0.0000 -40.0000 0.0000
      CHANNELS 3 Zrotation Xrotation Yrotation
      JOINT RightFoot
      {
        OFFSET 0.0000 -40.0000 0.0000
        CHANNELS 3 Zrotation Xrotation Yrotation
        JOINT RightToeBase
        {
          OFFSET 0.0000 -5.0000 10.0000
          CHANNELS 3 Zrotation Xrotation Yrotation
          End Site
          {
            OFFSET 0.0000 0.0000 5.0000
          }
        }
      }
    }
  }
}
MOTION
Frames: 16
Frame Time: 0.033333
0.0000 100.0000 0.0000 0.0000 0.0000 -0.0000 0.0000 0.0000 0.0000 -0.0000 0.0000 0.0000 0.0000 0.0000 0.0000 0.0000 0.0000 0.0000 0.0000 0.0000 0.0000 0.0000 0.0000 0.0000 0.0000 0.0000 0.0000 0.0000 60.0000 0.0000 0.0000 0.0000 0.0000 0.0000 0.0000 0.0000 0.0000 0.0000 -0.0000 0.0000 60.0000 0.0000 0.0000 0.0000 0.0000 0.0000 -0.0000 0.0000 0.0000 0.0000 0.0000 0.0000 0.0000 0.0000 0.0000 0.0000 0.0000 0.0000 0.0000 0.0000 0.0000 0.0000 0.0000 0.0000 0.0000 0.0000 0.0000 0.0000 0.0000
0.0000 102.9726 0.0000 0.0000 0.0000 2.0337 0.0000 0.0000 0.0000 2.0337 0.0000 0.0000 0.0000 0.0000 0.0000 0.0000 0.0000 0.0000 0.0000 0.0000 0.0000 0.0000 0.0000 0.0000 0.0000 0.0000 -18.3031 0.0000 60.0000 0.0000 0.0000 0.0000 0.0000 0.0000 0.0000 0.0000 0.0000 0.0000 18.3031 0.0000 60.0000 0.0000 0.0000 0.0000 0.0000 0.0000 18.3031 0.0000 0.0000 0.0000 0.0000 0.0000 0.0000 0.0000 0.0000 0.0000 0.0000 0.0000 -18.3031 0.0000 0.0000 27.4547 0.0000 0.0000 0.0000 0.0000 0.0000 0.0000 0.0000
0.0000 103.9781 0.0000 0.0000 0.0000 3.7157 0.0000 0.0000 0.0000 3.7157 0.0000 0.0000 0.0000 0.0000 0.0000 0.0000 0.0000 0.0000 0.0000 0.0000 0.0000 0.0000 0.0000 0.0000 0.0000 0.0000 -33.4415 0.0000 60.0000 0.0000 0.0000 0.0000 0.0000 0.0000 0.0000 0.0000 0.0000 0.0000 33.4415 0.0000 60.0000 0.0000 0.0000 0.0000 0.0000 0.0000 33.4415 0.0000 0.0000 0.0000 0.0000 0.0000 0.0000 0.0000 0.0000 0.0000 0.0000 0.0000 -33.4415 0.0000 0.0000 50.1623 0.0000 0.0000 0.0000 0.0000 0.0000 0.0000 0.0000
0.0000 102.3511 0.0000 0.0000 0.0000 4.7553 0.0000 0.0000 0.0000 4.7553 0.0000 0.0000 0.0000 0.0000 0.0000 0.0000 0.0000 0.0000 0.0000 0.0000 0.0000 0.0000 0.0000 0.0000 0.0000 0.0000 -42.7975 0.0000 60.0000 0.0000 0.0000 0.0000 0.0000 0.0000 0.0000 0.0000 0.0000 0.0000 42.7975 0.0000 60.0000 0.0000 0.0000 0.0000 0.0000 0.0000 42.7975 0.0000 0.0000 0.0000 0.0000 0.0000 0.0000 0.0000 0.0000 0.0000 0.0000 0.0000 -42.7975 0.0000 0.0000 64.1963 0.0000 0.0000 0.0000 0.0000 0.0000 0.0000 0.0000
0.0000 100.8316 0.0000 0.0000 0.0000 4.9726 0.0000 0.0000 0.0000 4.9726 0.0000 0.0000 0.0000 0.0000 0.0000 0.0000 0.0000 0.0000 0.0000 0.0000 0.0000 0.0000 0.0000 0.0000 0.0000 0.0000 -44.7535 0.0000 60.0000 0.0000 0.0000 0.0000 0.0000 0.0000 0.0000 0.0000 0.0000 0.0000 44.7535 0.0000 60.0000 0.0000 0.0000 0.0000 0.0000 0.0000 44.7535 0.0000 0.0000 0.0000 0.0000 0.0000 0.0000 0.0000 0.0000 0.0000 0.0000 0.0000 -44.7535 0.0000 0.0000 67.1302 0.0000 0.0000 0.0000 0.0000 0.0000 0.0000 0.0000
0.0000 103.4641 0.0000 0.0000 0.0000 4.3301 0.0000 0.0000 0.0000 4.3301 0.0000 0.0000 0.0000 0.0000 0.0000 0.0000 0.0000 0.0000 0.0000 0.0000 0.0000 0.0000 0.0000 0.0000 0.0000 0.0000 -38.9711 0.0000 60.0000 0.0000 0.0000 0.0000 0.0000 0.0000 0.0000 0.0000 0.0000 0.0000 38.9711 0.0000 60.0000 0.0000 0.0000 0.0000 0.0000 0.0000 38.9711 0.0000 0.0000 0.0000 0.0000 0.0000 0.0000 0.0000 0.0000 0.0000 0.0000 0.0000 -38.9711 0.0000 0.0000 58.4567 0.0000 0.0000 0.0000 0.0000 0.0000 0.0000 0.0000
0.0000 103.8042 0.0000 0.0000 0.0000 2.9389 0.0000 0.0000 0.0000 2.9389 0.0000 0.0000 0.0000 0.0000 0.0000 0.0000 0.0000 0.0000 0.0000 0.0000 0.0000 0.0000 0.0000 0.0000 0.0000 0.0000 -26.4503 0.0000 60.0000 0.0000 0.0000 0.0000 0.0000 0.0000 0.0000 0.0000 0.0000 0.0000 26.4503 0.0000 60.0000 0.0000 0.0000 0.0000 0.0000 0.0000 26.4503 0.0000 0.0000 0.0000 0.0000 0.0000 0.0000 0.0000 0.0000 0.0000 0.0000 0.0000 -26.4503 0.0000 0.0000 39.6755 0.0000 0.0000 0.0000 0.0000 0.0000 0.0000 0.0000
0.0000 101.6269 0.0000 0.0000 0.0000 1.0396 0.0000 0.0000 0.0000 1.0396 0.0000 0.0000 0.0000 0.0000 0.0000 0.0000 0.0000 0.0000 0.0000 0.0000 0.0000 0.0000 0.0000 0.0000 0.0000 0.0000 -9.3560 0.0000 60.0000 0.0000 0.0000 0.0000 0.0000 0.0000 0.0000 0.0000 0.0000 0.0000 9.3560 0.0000 60.0000 0.0000 0.0000 0.0000 0.0000 0.0000 9.3560 0.0000 0.0000 0.0000 0.0000 0.0000 0.0000 0.0000 0.0000 0.0000 0.0000 0.0000 -9.3560 0.0000 0.0000 14.0340 0.0000 0.0000 0.0000 0.0000 0.0000 0.0000 0.0000
0.0000 101.6269 0.0000 0.0000 0.0000 -1.0396 0.0000 0.0000 0.0000 -1.0396 0.0000 0.0000 0.0000 0.0000 0.0000 0.0000 0.0000 0.0000 0.0000 0.0000 0.0000 0.0000 0.0000 0.0000 0.0000 0.0000 9.3560 0.0000 60.0000 0.0000 0.0000 0.0000 0.0000 0.0000 0.0000 0.0000 0.0000 0.0000 -9.3560 0.0000 60.0000 0.0000 0.0000 0.0000 0.0000 0.0000 -9.3560 0.0000 0.0000 14.0340 0.0000 0.0000 0.0000 0.0000 0.0000 0.0000 0.0000 0.0000 9.3560 0.0000 0.0000 0.0000 0.0000 0.0000 0.0000 0.0000 0.0000 0.0000 0.0000
0.0000 103.8042 0.0000 0.0000 0.0000 -2.9389 0.0000 0.0000 0.0000 -2.9389 0.0000 0.0000 0.0000 0.0000 0.0000 0.0000 0.0000 0.0000 0.0000 0.0000 0.0000 0.0000 0.0000 0.0000 0.0000 0.0000 26.4503 0.0000 60.0000 0.0000 0.0000 0.0000 0.0000 0.0000 0.0000 0.0000 0.0000 0.0000 -26.4503 0.0000 60.0000 0.0000 0.0000 0.0000 0.0000 0.0000 -26.4503 0.0000 0.0000 39.6755 0.0000 0.0000 0.0000 0.0000 0.0000 0.0000 0.0000 0.0000 26.4503 0.0000 0.0000 0.0000 0.0000 0.0000 0.0000 0.0000 0.0000 0.0000 0.0000
0.0000 103.4641 0.0000 0.0000 0.0000 -4.3301 0.0000 0.0000 0.0000 -4.3301 0.0000 0.0000 0.0000 0.0000 0.0000 0.0000 0.0000 0.0000 0.0000 0.0000 0.0000 0.0000 0.0000 0.0000 0.0000 0.0000 38.9711 0.0000 60.0000 0.0000 0.0000 0.0000 0.0000 0.0000 0.0000 0.0000 0.0000 0.0000 -38.9711 0.0000 60.0000 0.0000 0.0000 0.0000 0.0000 0.0000 -38.9711 0.0000 0.0000 58.4567 0.0000 0.0000 0.0000 0.0000 0.0000 0.0000 0.0000 0.0000 38.9711 0.0000 0.0000 0.0000 0.0000 0.0000 0.0000 0.0000 0.0000 0.0000 0.0000
0.0000 100.8316 0.0000 0.0000 0.0000 -4.9726 0.0000 0.0000 0.0000 -4.9726 0.0000 0.0000 0.0000 0.0000 0.0000 0.0000 0.0000 0.0000 0.0000 0.0000 0.0000 0.0000 0.0000 0.0000 0.0000 0.0000 44.7535 0.0000 60.0000 0.0000 0.0000 0.0000 0.0000 0.0000 0.0000 0.0000 0.0000 0.0000 -44.7535 0.0000 60.0000 0.0000 0.0000 0.0000 0.0000 0.0000 -44.7535 0.0000 0.0000 67.1302 0.0000 0.0000 0.0000 0.0000 0.0000 0.0000 0.0000 0.0000 44.7535 0.0000 0.0000 0.0000 0.0000 0.0000 0.0000 0.0000 0.0000 0.0000 0.0000
0.0000 102.3511 0.0000 0.0000 0.0000 -4.7553 0.0000 0.0000 0.0000 -4.7553 0.0000 0.0000 0.0000 0.0000 0.0000 0.0000 0.0000 0.0000 0.0000 0.0000 0.0000 0.0000 0.0000 0.0000 0.0000 0.0000 42.7975 0.0000 60.0000 0.0000 0.0000 0.0000 0.0000 0.0000 0.0000 0.0000 0.0000 0.0000 -42.7975 0.0000 60.0000 0.0000 0.0000 0.0000 0.0000 0.0000 -42.7975 0.0000 0.0000 64.1963 0.0000 0.0000 0.0000 0.0000 0.0000 0.0000 0.0000 0.0000 42.7975 0.0000 0.0000 0.0000 0.0000 0.0000 0.0000 0.0000 0.0000 0.0000 0.0000
0.0000 103.9781 0.0000 0.0000 0.0000 -3.7157 0.0000 0.0000 0.0000 -3.7157 0.0000 0.0000 0.0000 0.0000 0.0000 0.0000 0.0000 0.0000 0.0000 0.0000 0.0000 0.0000 0.0000 0.0000 0.0000 0.0000 33.4415 0.0000 60.0000 0.0000 0.0000 0.0000 0.0000 0.0000 0.0000 0.0000 0.0000 0.0000 -33.4415 0.0000 60.0000 0.0000 0.0000 0.0000 0.0000 0.0000 -33.4415 0.0000 0.0000 50.1623 0.0000 0.0000 0.0000 0.0000 0.0000 0.0000 0.0000 0.0000 33.4415 0.0000 0.0000 0.0000 0.0000 0.0000 0.0000 0.0000 0.0000 0.0000 0.0000
0.0000 102.9726 0.0000 0.0000 0.0000 -2.0337 0.0000 0.0000 0.0000 -2.0337 0.0000 0.0000 0.0000 0.0000 0.0000 0.0000 0.0000 0.0000 0.0000 0.0000 0.0000 0.0000 0.0000 0.0000 0.0000 0.0000 18.3031 0.0000 60.0000 0.0000 0.0000 0.0000 0.0000 0.0000 0.0000 0.0000 0.0000 0.0000 -18.3031 0.0000 60.0000 0.0000 0.0000 0.0000 0.0000 0.0000 -18.3031 0.0000 0.0000 27.4547 0.0000 0.0000 0.0000 0.0000 0.0000 0.0000 0.0000 0.0000 18.3031 0.0000 0.0000 0.0000 0.0000 0.0000 0.0000 0.0000 0.0000 0.0000 0.0000
0.0000 100.0000 0.0000 0.0000 0.0000 -0.0000 0.0000 0.0000 0.0000 -0.0000 0.0000 0.0000 0.0000 0.0000 0.0000 0.0000 0.0000 0.0000 0.0000 0.0000 0.0000 0.0000 0.0000 0.0000 0.0000 0.0000 0.0000 0.0000 60.0000 0.0000 0.0000 0.0000 0.0000 0.0000 0.0000 0.0000 0.0000 0.0000 -0.0000 0.0000 60.0000 0.0000 0.0000 0.0000 0.0000 0.0000 -0.0000 0.0000 0.0000 0.0000 0.0000 0.0000 0.0000 0.0000 0.0000 0.0000 0.0000 0.0000 0.0000 0.0000 0.0000 0.0000 0.0000 0.0000 0.0000 0.0000 0.0000 0.0000 0.0000
